<svg preserveAspectRatio="none" width="100%" height="100%" overflow="visible" style="display: block;" viewBox="0 0 20 20" fill="none" xmlns="http://www.w3.org/2000/svg">
<g id="icons8-medium 1" clip-path="url(#clip0_0_11)">
<path id="Vector" d="M5.66667 4.66667C4.92251 4.66667 4.18564 4.81324 3.49813 5.09802C2.81062 5.38279 2.18593 5.8002 1.65973 6.32639C1.13353 6.85259 0.716126 7.47728 0.431349 8.16479C0.146573 8.8523 -8.44399e-08 9.58918 -8.44399e-08 10.3333C-8.44399e-08 11.0775 0.146573 11.8144 0.431349 12.5019C0.716126 13.1894 1.13353 13.8141 1.65973 14.3403C2.18593 14.8665 2.81062 15.2839 3.49813 15.5686C4.18564 15.8534 4.92251 16 5.66667 16C6.41082 16 7.14769 15.8534 7.83521 15.5686C8.52272 15.2839 9.14741 14.8665 9.67361 14.3403C10.1998 13.8141 10.6172 13.1894 10.902 12.5019C11.1868 11.8144 11.3333 11.0775 11.3333 10.3333C11.3333 9.58918 11.1868 8.8523 10.902 8.16479C10.6172 7.47728 10.1998 6.85259 9.67361 6.32639C9.14741 5.8002 8.52272 5.38279 7.83521 5.09802C7.14769 4.81324 6.41082 4.66667 5.66667 4.66667ZM14.6667 5.33333C14.3165 5.33333 13.9697 5.46266 13.6462 5.71394C13.3226 5.96521 13.0287 6.33351 12.781 6.7978C12.5334 7.26209 12.337 7.81329 12.203 8.41992C12.069 9.02654 12 9.67672 12 10.3333C12 10.9899 12.069 11.6401 12.203 12.2467C12.337 12.8534 12.5334 13.4046 12.781 13.8689C13.0287 14.3332 13.3226 14.7015 13.6462 14.9527C13.9697 15.204 14.3165 15.3333 14.6667 15.3333C15.0169 15.3333 15.3636 15.204 15.6872 14.9527C16.0107 14.7015 16.3047 14.3332 16.5523 13.8689C16.7999 13.4046 16.9963 12.8534 17.1303 12.2467C17.2644 11.6401 17.3333 10.9899 17.3333 10.3333C17.3333 9.67672 17.2644 9.02654 17.1303 8.41992C16.9963 7.81329 16.7999 7.26209 16.5523 6.7978C16.3047 6.33351 16.0107 5.96521 15.6872 5.71394C15.3636 5.46266 15.0169 5.33333 14.6667 5.33333ZM19 6C18.7348 6 18.4804 6.45655 18.2929 7.2692C18.1054 8.08186 18 9.18406 18 10.3333C18 11.4826 18.1054 12.5848 18.2929 13.3975C18.4804 14.2101 18.7348 14.6667 19 14.6667C19.2652 14.6667 19.5196 14.2101 19.7071 13.3975C19.8946 12.5848 20 11.4826 20 10.3333C20 9.18406 19.8946 8.08186 19.7071 7.2692C19.5196 6.45655 19.2652 6 19 6Z" fill="var(--fill-0, #161616)"/>
</g>
<defs>
<clipPath id="clip0_0_11">
<rect width="20" height="20" fill="white"/>
</clipPath>
</defs>
</svg>
