<svg preserveAspectRatio="none" width="100%" height="100%" overflow="visible" style="display: block;" viewBox="0 0 20 20" fill="none" xmlns="http://www.w3.org/2000/svg">
<g id="icons8-linkedin 1">
<path id="Vector" d="M16 2.66667H4C3.26333 2.66667 2.66667 3.26333 2.66667 4V16C2.66667 16.7367 3.26333 17.3333 4 17.3333H16C16.7367 17.3333 17.3333 16.7367 17.3333 16V4C17.3333 3.26333 16.7367 2.66667 16 2.66667ZM7.30267 14.6667H5.336V8.33867H7.30267V14.6667ZM6.29933 7.434C5.66533 7.434 5.15267 6.92 5.15267 6.28733C5.15267 5.65467 5.666 5.14133 6.29933 5.14133C6.93133 5.14133 7.44533 5.65533 7.44533 6.28733C7.44533 6.92 6.93133 7.434 6.29933 7.434ZM14.6693 14.6667H12.704V11.5893C12.704 10.8553 12.6907 9.91133 11.682 9.91133C10.6587 9.91133 10.5013 10.7107 10.5013 11.536V14.6667H8.536V8.33867H10.4227V9.20333H10.4493C10.712 8.706 11.3533 8.18133 12.31 8.18133C14.3013 8.18133 14.6693 9.492 14.6693 11.196V14.6667Z" fill="var(--fill-0, #161616)"/>
</g>
</svg>
