<svg width="380" height="380" viewBox="0 0 380 380" fill="none" xmlns="http://www.w3.org/2000/svg">
<path d="M71.1006 71.0996V70.6496H70.6506V71.0996H71.1006ZM71.1006 71.0996H70.6506V72.9853H71.1006H71.5506V71.0996H71.1006ZM71.1006 82.4139H70.6506V86.1853H71.1006H71.5506V82.4139H71.1006ZM71.1006 95.6139H70.6506V99.3853H71.1006H71.5506V95.6139H71.1006ZM71.1006 108.814H70.6506V112.585H71.1006H71.5506V108.814H71.1006ZM71.1006 122.014H70.6506V125.785H71.1006H71.5506V122.014H71.1006ZM71.1006 135.214H70.6506V138.985H71.1006H71.5506V135.214H71.1006ZM71.1006 148.414H70.6506V152.185H71.1006H71.5506V148.414H71.1006ZM71.1006 161.614H70.6506V165.385H71.1006H71.5506V161.614H71.1006ZM71.1006 174.814H70.6506V178.585H71.1006H71.5506V174.814H71.1006ZM71.1006 188.014H70.6506V189.9H71.1006H71.5506V188.014H71.1006ZM189.901 71.0996V70.6496H188.015V71.0996V71.5496H189.901V71.0996ZM178.586 71.0996V70.6496H174.815V71.0996V71.5496H178.586V71.0996ZM165.386 71.0996V70.6496H161.615V71.0996V71.5496H165.386V71.0996ZM152.186 71.0996V70.6496H148.415V71.0996V71.5496H152.186V71.0996ZM138.986 71.0996V70.6496H135.215V71.0996V71.5496H138.986V71.0996ZM125.786 71.0996V70.6496H122.015V71.0996V71.5496H125.786V71.0996ZM112.586 71.0996V70.6496H108.815V71.0996V71.5496H112.586V71.0996ZM99.3863 71.0996V70.6496H95.6149V71.0996V71.5496H99.3863V71.0996ZM86.1863 71.0996V70.6496H82.4149V71.0996V71.5496H86.1863V71.0996ZM72.9863 71.0996V70.6496H71.1006V71.0996V71.5496H72.9863V71.0996Z" fill="#F5ECC2"/>
<g clip-path="url(#clip0_270_1156)">
<line x1="25.8166" y1="75.0256" x2="361.834" y2="-260.992" stroke="#F5ECC2" stroke-width="0.9"/>
<line x1="30.0588" y1="79.2677" x2="366.076" y2="-256.749" stroke="#F5ECC2" stroke-width="0.9"/>
<line x1="34.3019" y1="83.5099" x2="370.319" y2="-252.507" stroke="#F5ECC2" stroke-width="0.9"/>
<line x1="38.5441" y1="87.7521" x2="374.561" y2="-248.265" stroke="#F5ECC2" stroke-width="0.9"/>
<line x1="42.7873" y1="91.9943" x2="378.804" y2="-244.023" stroke="#F5ECC2" stroke-width="0.9"/>
<line x1="47.0295" y1="96.2384" x2="383.047" y2="-239.779" stroke="#F5ECC2" stroke-width="0.9"/>
<line x1="51.2726" y1="100.481" x2="387.29" y2="-235.537" stroke="#F5ECC2" stroke-width="0.9"/>
<line x1="55.5148" y1="104.723" x2="391.532" y2="-231.294" stroke="#F5ECC2" stroke-width="0.9"/>
<line x1="59.757" y1="108.965" x2="395.774" y2="-227.052" stroke="#F5ECC2" stroke-width="0.9"/>
<line x1="63.9992" y1="113.209" x2="400.016" y2="-222.808" stroke="#F5ECC2" stroke-width="0.9"/>
<line x1="68.2433" y1="117.451" x2="404.26" y2="-218.566" stroke="#F5ECC2" stroke-width="0.9"/>
<line x1="72.4855" y1="121.694" x2="408.503" y2="-214.324" stroke="#F5ECC2" stroke-width="0.9"/>
<line x1="76.7277" y1="125.936" x2="412.745" y2="-210.081" stroke="#F5ECC2" stroke-width="0.9"/>
<line x1="80.9709" y1="130.178" x2="416.988" y2="-205.839" stroke="#F5ECC2" stroke-width="0.9"/>
<line x1="85.2131" y1="134.422" x2="421.23" y2="-201.595" stroke="#F5ECC2" stroke-width="0.9"/>
<line x1="89.4552" y1="138.662" x2="425.472" y2="-197.355" stroke="#F5ECC2" stroke-width="0.9"/>
<line x1="93.6984" y1="142.906" x2="429.716" y2="-193.111" stroke="#F5ECC2" stroke-width="0.9"/>
<line x1="97.9416" y1="147.151" x2="433.959" y2="-188.867" stroke="#F5ECC2" stroke-width="0.9"/>
<line x1="102.184" y1="151.391" x2="438.201" y2="-184.626" stroke="#F5ECC2" stroke-width="0.9"/>
<line x1="106.426" y1="155.635" x2="442.443" y2="-180.382" stroke="#F5ECC2" stroke-width="0.9"/>
<line x1="110.669" y1="159.877" x2="446.686" y2="-176.14" stroke="#F5ECC2" stroke-width="0.9"/>
<line x1="114.912" y1="164.119" x2="450.929" y2="-171.898" stroke="#F5ECC2" stroke-width="0.9"/>
<line x1="119.154" y1="168.363" x2="455.172" y2="-167.654" stroke="#F5ECC2" stroke-width="0.9"/>
<line x1="123.397" y1="172.606" x2="459.414" y2="-163.412" stroke="#F5ECC2" stroke-width="0.9"/>
<line x1="127.64" y1="176.848" x2="463.657" y2="-159.169" stroke="#F5ECC2" stroke-width="0.9"/>
<line x1="131.882" y1="181.09" x2="467.899" y2="-154.927" stroke="#F5ECC2" stroke-width="0.9"/>
<line x1="136.125" y1="185.334" x2="472.142" y2="-150.683" stroke="#F5ECC2" stroke-width="0.9"/>
<line x1="140.368" y1="189.576" x2="476.385" y2="-146.441" stroke="#F5ECC2" stroke-width="0.9"/>
<line x1="144.611" y1="193.819" x2="480.628" y2="-142.199" stroke="#F5ECC2" stroke-width="0.9"/>
<line x1="148.853" y1="198.061" x2="484.87" y2="-137.956" stroke="#F5ECC2" stroke-width="0.9"/>
<line x1="153.095" y1="202.303" x2="489.112" y2="-133.714" stroke="#F5ECC2" stroke-width="0.9"/>
<line x1="157.338" y1="206.547" x2="493.355" y2="-129.47" stroke="#F5ECC2" stroke-width="0.9"/>
<line x1="161.581" y1="210.789" x2="497.598" y2="-125.228" stroke="#F5ECC2" stroke-width="0.9"/>
<line x1="165.823" y1="215.031" x2="501.841" y2="-120.986" stroke="#F5ECC2" stroke-width="0.9"/>
<line x1="170.066" y1="219.276" x2="506.083" y2="-116.742" stroke="#F5ECC2" stroke-width="0.9"/>
<line x1="174.309" y1="223.516" x2="510.326" y2="-112.501" stroke="#F5ECC2" stroke-width="0.9"/>
<line x1="178.551" y1="227.76" x2="514.568" y2="-108.257" stroke="#F5ECC2" stroke-width="0.9"/>
<line x1="182.794" y1="232.002" x2="518.811" y2="-104.015" stroke="#F5ECC2" stroke-width="0.9"/>
<line x1="187.037" y1="236.244" x2="523.054" y2="-99.7729" stroke="#F5ECC2" stroke-width="0.9"/>
<line x1="191.279" y1="240.488" x2="527.297" y2="-95.5287" stroke="#F5ECC2" stroke-width="0.9"/>
<line x1="195.522" y1="244.729" x2="531.539" y2="-91.2885" stroke="#F5ECC2" stroke-width="0.9"/>
<line x1="199.765" y1="248.973" x2="535.782" y2="-87.0444" stroke="#F5ECC2" stroke-width="0.9"/>
<line x1="204.007" y1="253.215" x2="540.024" y2="-82.8022" stroke="#F5ECC2" stroke-width="0.9"/>
<line x1="208.25" y1="257.457" x2="544.267" y2="-78.56" stroke="#F5ECC2" stroke-width="0.9"/>
<line x1="212.492" y1="261.701" x2="548.51" y2="-74.3158" stroke="#F5ECC2" stroke-width="0.9"/>
<line x1="216.736" y1="265.944" x2="552.753" y2="-70.0737" stroke="#F5ECC2" stroke-width="0.9"/>
<line x1="220.978" y1="270.186" x2="556.995" y2="-65.8315" stroke="#F5ECC2" stroke-width="0.9"/>
<line x1="225.22" y1="274.428" x2="561.237" y2="-61.5893" stroke="#F5ECC2" stroke-width="0.9"/>
<line x1="229.463" y1="278.672" x2="565.48" y2="-57.3451" stroke="#F5ECC2" stroke-width="0.9"/>
<line x1="233.706" y1="282.914" x2="569.723" y2="-53.103" stroke="#F5ECC2" stroke-width="0.9"/>
<line x1="237.948" y1="287.156" x2="573.966" y2="-48.8608" stroke="#F5ECC2" stroke-width="0.9"/>
<line x1="242.191" y1="291.399" x2="578.208" y2="-44.6186" stroke="#F5ECC2" stroke-width="0.9"/>
<line x1="246.434" y1="295.641" x2="582.451" y2="-40.3764" stroke="#F5ECC2" stroke-width="0.9"/>
<line x1="250.676" y1="299.885" x2="586.693" y2="-36.1322" stroke="#F5ECC2" stroke-width="0.9"/>
<line x1="254.919" y1="304.127" x2="590.936" y2="-31.8901" stroke="#F5ECC2" stroke-width="0.9"/>
<line x1="259.161" y1="308.369" x2="595.178" y2="-27.6479" stroke="#F5ECC2" stroke-width="0.9"/>
<line x1="263.404" y1="312.613" x2="599.422" y2="-23.4037" stroke="#F5ECC2" stroke-width="0.9"/>
<line x1="267.647" y1="316.854" x2="603.664" y2="-19.1635" stroke="#F5ECC2" stroke-width="0.9"/>
<line x1="271.889" y1="321.098" x2="607.906" y2="-14.9194" stroke="#F5ECC2" stroke-width="0.9"/>
</g>
<rect x="189.9" y="71.0996" width="118.8" height="118.8" stroke="#F5ECC2" stroke-width="0.9"/>
<g clip-path="url(#clip1_270_1156)">
<line x1="25.8166" y1="193.824" x2="361.834" y2="-142.193" stroke="#F5ECC2" stroke-width="0.9"/>
<line x1="30.0588" y1="198.067" x2="366.076" y2="-137.951" stroke="#F5ECC2" stroke-width="0.9"/>
<line x1="34.3019" y1="202.311" x2="370.319" y2="-133.706" stroke="#F5ECC2" stroke-width="0.9"/>
<line x1="38.5441" y1="206.551" x2="374.561" y2="-129.466" stroke="#F5ECC2" stroke-width="0.9"/>
<line x1="42.7873" y1="210.795" x2="378.804" y2="-125.222" stroke="#F5ECC2" stroke-width="0.9"/>
<line x1="47.0295" y1="215.039" x2="383.047" y2="-120.978" stroke="#F5ECC2" stroke-width="0.9"/>
<line x1="51.2726" y1="219.279" x2="387.29" y2="-116.738" stroke="#F5ECC2" stroke-width="0.9"/>
<line x1="55.5148" y1="223.524" x2="391.532" y2="-112.494" stroke="#F5ECC2" stroke-width="0.9"/>
<line x1="59.757" y1="227.766" x2="395.774" y2="-108.251" stroke="#F5ECC2" stroke-width="0.9"/>
<line x1="63.9992" y1="232.008" x2="400.016" y2="-104.009" stroke="#F5ECC2" stroke-width="0.9"/>
<line x1="68.2433" y1="236.252" x2="404.26" y2="-99.7651" stroke="#F5ECC2" stroke-width="0.9"/>
<line x1="72.4855" y1="240.494" x2="408.503" y2="-95.5229" stroke="#F5ECC2" stroke-width="0.9"/>
<line x1="76.7277" y1="244.736" x2="412.745" y2="-91.2807" stroke="#F5ECC2" stroke-width="0.9"/>
<line x1="80.9709" y1="248.979" x2="416.988" y2="-87.0385" stroke="#F5ECC2" stroke-width="0.9"/>
<line x1="85.2131" y1="253.221" x2="421.23" y2="-82.7963" stroke="#F5ECC2" stroke-width="0.9"/>
<line x1="89.4552" y1="257.463" x2="425.472" y2="-78.5541" stroke="#F5ECC2" stroke-width="0.9"/>
<line x1="93.6984" y1="261.707" x2="429.716" y2="-74.31" stroke="#F5ECC2" stroke-width="0.9"/>
<line x1="97.9416" y1="265.949" x2="433.959" y2="-70.0678" stroke="#F5ECC2" stroke-width="0.9"/>
<line x1="102.184" y1="270.192" x2="438.201" y2="-65.8256" stroke="#F5ECC2" stroke-width="0.9"/>
<line x1="106.426" y1="274.436" x2="442.443" y2="-61.5815" stroke="#F5ECC2" stroke-width="0.9"/>
<line x1="110.669" y1="278.676" x2="446.686" y2="-57.3412" stroke="#F5ECC2" stroke-width="0.9"/>
<line x1="114.912" y1="282.92" x2="450.929" y2="-53.0971" stroke="#F5ECC2" stroke-width="0.9"/>
<line x1="119.154" y1="287.162" x2="455.172" y2="-48.8549" stroke="#F5ECC2" stroke-width="0.9"/>
<line x1="123.397" y1="291.404" x2="459.414" y2="-44.6127" stroke="#F5ECC2" stroke-width="0.9"/>
<line x1="127.64" y1="295.649" x2="463.657" y2="-40.3686" stroke="#F5ECC2" stroke-width="0.9"/>
<line x1="131.882" y1="299.889" x2="467.899" y2="-36.1283" stroke="#F5ECC2" stroke-width="0.9"/>
<line x1="136.125" y1="304.133" x2="472.142" y2="-31.8842" stroke="#F5ECC2" stroke-width="0.9"/>
<line x1="140.368" y1="308.377" x2="476.385" y2="-27.6401" stroke="#F5ECC2" stroke-width="0.9"/>
<line x1="144.611" y1="312.617" x2="480.628" y2="-23.3998" stroke="#F5ECC2" stroke-width="0.9"/>
<line x1="148.853" y1="316.861" x2="484.87" y2="-19.1557" stroke="#F5ECC2" stroke-width="0.9"/>
<line x1="153.095" y1="321.104" x2="489.112" y2="-14.9135" stroke="#F5ECC2" stroke-width="0.9"/>
<line x1="157.338" y1="325.346" x2="493.355" y2="-10.6713" stroke="#F5ECC2" stroke-width="0.9"/>
<line x1="161.581" y1="329.59" x2="497.598" y2="-6.42717" stroke="#F5ECC2" stroke-width="0.9"/>
<line x1="165.823" y1="333.832" x2="501.841" y2="-2.18498" stroke="#F5ECC2" stroke-width="0.9"/>
<line x1="170.066" y1="338.074" x2="506.083" y2="2.05721" stroke="#F5ECC2" stroke-width="0.9"/>
<line x1="174.309" y1="342.317" x2="510.326" y2="6.29939" stroke="#F5ECC2" stroke-width="0.9"/>
<line x1="178.551" y1="346.561" x2="514.568" y2="10.5435" stroke="#F5ECC2" stroke-width="0.9"/>
<line x1="182.794" y1="350.801" x2="518.811" y2="14.7838" stroke="#F5ECC2" stroke-width="0.9"/>
<line x1="187.037" y1="355.045" x2="523.054" y2="19.0279" stroke="#F5ECC2" stroke-width="0.9"/>
<line x1="191.279" y1="359.287" x2="527.297" y2="23.2701" stroke="#F5ECC2" stroke-width="0.9"/>
<line x1="195.522" y1="363.529" x2="531.539" y2="27.5123" stroke="#F5ECC2" stroke-width="0.9"/>
<line x1="199.765" y1="367.774" x2="535.782" y2="31.7564" stroke="#F5ECC2" stroke-width="0.9"/>
<line x1="204.007" y1="372.014" x2="540.024" y2="35.9967" stroke="#F5ECC2" stroke-width="0.9"/>
<line x1="208.25" y1="376.258" x2="544.267" y2="40.2408" stroke="#F5ECC2" stroke-width="0.9"/>
<line x1="212.492" y1="380.502" x2="548.51" y2="44.4849" stroke="#F5ECC2" stroke-width="0.9"/>
<line x1="216.736" y1="384.742" x2="552.753" y2="48.7252" stroke="#F5ECC2" stroke-width="0.9"/>
<line x1="220.978" y1="388.986" x2="556.995" y2="52.9693" stroke="#F5ECC2" stroke-width="0.9"/>
<line x1="225.22" y1="393.229" x2="561.237" y2="57.2115" stroke="#F5ECC2" stroke-width="0.9"/>
<line x1="229.463" y1="397.471" x2="565.48" y2="61.4537" stroke="#F5ECC2" stroke-width="0.9"/>
<line x1="233.706" y1="401.715" x2="569.723" y2="65.6978" stroke="#F5ECC2" stroke-width="0.9"/>
<line x1="237.948" y1="405.955" x2="573.966" y2="69.9381" stroke="#F5ECC2" stroke-width="0.9"/>
<line x1="242.191" y1="410.199" x2="578.208" y2="74.1822" stroke="#F5ECC2" stroke-width="0.9"/>
<line x1="246.434" y1="414.442" x2="582.451" y2="78.4244" stroke="#F5ECC2" stroke-width="0.9"/>
<line x1="250.676" y1="418.684" x2="586.693" y2="82.6666" stroke="#F5ECC2" stroke-width="0.9"/>
<line x1="254.919" y1="422.928" x2="590.936" y2="86.9107" stroke="#F5ECC2" stroke-width="0.9"/>
<line x1="259.161" y1="427.17" x2="595.178" y2="91.1529" stroke="#F5ECC2" stroke-width="0.9"/>
<line x1="263.404" y1="431.412" x2="599.422" y2="95.3951" stroke="#F5ECC2" stroke-width="0.9"/>
<line x1="267.647" y1="435.654" x2="603.664" y2="99.6373" stroke="#F5ECC2" stroke-width="0.9"/>
<line x1="271.889" y1="439.899" x2="607.906" y2="103.881" stroke="#F5ECC2" stroke-width="0.9"/>
</g>
<path d="M308.7 308.7V309.15H309.15V308.7H308.7ZM308.7 189.9H308.25V308.7H308.7H309.15V189.9H308.7ZM308.7 308.7V308.25H189.9V308.7V309.15H308.7V308.7Z" fill="#F5ECC2"/>
<g clip-path="url(#clip2_270_1156)">
<line x1="-92.9832" y1="193.824" x2="243.034" y2="-142.193" stroke="#F5ECC2" stroke-width="0.9"/>
<line x1="-88.741" y1="198.067" x2="247.276" y2="-137.951" stroke="#F5ECC2" stroke-width="0.9"/>
<line x1="-84.4989" y1="202.311" x2="251.518" y2="-133.706" stroke="#F5ECC2" stroke-width="0.9"/>
<line x1="-80.2557" y1="206.551" x2="255.761" y2="-129.466" stroke="#F5ECC2" stroke-width="0.9"/>
<line x1="-76.0125" y1="210.795" x2="260.005" y2="-125.222" stroke="#F5ECC2" stroke-width="0.9"/>
<line x1="-71.7703" y1="215.039" x2="264.247" y2="-120.978" stroke="#F5ECC2" stroke-width="0.9"/>
<line x1="-67.5282" y1="219.279" x2="268.489" y2="-116.738" stroke="#F5ECC2" stroke-width="0.9"/>
<line x1="-63.285" y1="223.524" x2="272.732" y2="-112.494" stroke="#F5ECC2" stroke-width="0.9"/>
<line x1="-59.0428" y1="227.766" x2="276.974" y2="-108.251" stroke="#F5ECC2" stroke-width="0.9"/>
<line x1="-54.8006" y1="232.008" x2="281.217" y2="-104.009" stroke="#F5ECC2" stroke-width="0.9"/>
<line x1="-50.5575" y1="236.252" x2="285.46" y2="-99.7651" stroke="#F5ECC2" stroke-width="0.9"/>
<line x1="-46.3143" y1="240.494" x2="289.703" y2="-95.5229" stroke="#F5ECC2" stroke-width="0.9"/>
<line x1="-42.0721" y1="244.736" x2="293.945" y2="-91.2807" stroke="#F5ECC2" stroke-width="0.9"/>
<line x1="-37.8299" y1="248.979" x2="298.187" y2="-87.0385" stroke="#F5ECC2" stroke-width="0.9"/>
<line x1="-33.5868" y1="253.221" x2="302.43" y2="-82.7963" stroke="#F5ECC2" stroke-width="0.9"/>
<line x1="-29.3446" y1="257.463" x2="306.673" y2="-78.5541" stroke="#F5ECC2" stroke-width="0.9"/>
<line x1="-25.1014" y1="261.707" x2="310.916" y2="-74.31" stroke="#F5ECC2" stroke-width="0.9"/>
<line x1="-20.8582" y1="265.949" x2="315.159" y2="-70.0678" stroke="#F5ECC2" stroke-width="0.9"/>
<line x1="-16.616" y1="270.192" x2="319.401" y2="-65.8256" stroke="#F5ECC2" stroke-width="0.9"/>
<line x1="-12.3739" y1="274.436" x2="323.643" y2="-61.5815" stroke="#F5ECC2" stroke-width="0.9"/>
<line x1="-8.13167" y1="278.676" x2="327.885" y2="-57.3412" stroke="#F5ECC2" stroke-width="0.9"/>
<line x1="-3.88753" y1="282.92" x2="332.13" y2="-53.0971" stroke="#F5ECC2" stroke-width="0.9"/>
<line x1="0.354653" y1="287.162" x2="336.372" y2="-48.8549" stroke="#F5ECC2" stroke-width="0.9"/>
<line x1="4.59684" y1="291.404" x2="340.614" y2="-44.6127" stroke="#F5ECC2" stroke-width="0.9"/>
<line x1="8.83903" y1="295.649" x2="344.856" y2="-40.3686" stroke="#F5ECC2" stroke-width="0.9"/>
<line x1="13.0822" y1="299.889" x2="349.099" y2="-36.1283" stroke="#F5ECC2" stroke-width="0.9"/>
<line x1="17.3254" y1="304.133" x2="353.343" y2="-31.8842" stroke="#F5ECC2" stroke-width="0.9"/>
<line x1="21.5675" y1="308.377" x2="357.585" y2="-27.6401" stroke="#F5ECC2" stroke-width="0.9"/>
<line x1="25.8107" y1="312.617" x2="361.828" y2="-23.3998" stroke="#F5ECC2" stroke-width="0.9"/>
<line x1="30.0529" y1="316.861" x2="366.07" y2="-19.1557" stroke="#F5ECC2" stroke-width="0.9"/>
<line x1="34.2951" y1="321.104" x2="370.312" y2="-14.9135" stroke="#F5ECC2" stroke-width="0.9"/>
<line x1="38.5382" y1="325.346" x2="374.555" y2="-10.6713" stroke="#F5ECC2" stroke-width="0.9"/>
<line x1="42.7814" y1="329.59" x2="378.799" y2="-6.42717" stroke="#F5ECC2" stroke-width="0.9"/>
<line x1="47.0236" y1="333.832" x2="383.041" y2="-2.18498" stroke="#F5ECC2" stroke-width="0.9"/>
<line x1="51.2658" y1="338.074" x2="387.283" y2="2.05721" stroke="#F5ECC2" stroke-width="0.9"/>
<line x1="55.509" y1="342.317" x2="391.526" y2="6.29939" stroke="#F5ECC2" stroke-width="0.9"/>
<line x1="59.7511" y1="346.561" x2="395.768" y2="10.5435" stroke="#F5ECC2" stroke-width="0.9"/>
<line x1="63.9943" y1="350.801" x2="400.011" y2="14.7838" stroke="#F5ECC2" stroke-width="0.9"/>
<line x1="68.2365" y1="355.045" x2="404.254" y2="19.0279" stroke="#F5ECC2" stroke-width="0.9"/>
<line x1="72.4797" y1="359.287" x2="408.497" y2="23.2701" stroke="#F5ECC2" stroke-width="0.9"/>
<line x1="76.7218" y1="363.529" x2="412.739" y2="27.5123" stroke="#F5ECC2" stroke-width="0.9"/>
<line x1="80.964" y1="367.774" x2="416.981" y2="31.7564" stroke="#F5ECC2" stroke-width="0.9"/>
<line x1="85.2072" y1="372.014" x2="421.224" y2="35.9967" stroke="#F5ECC2" stroke-width="0.9"/>
<line x1="89.4504" y1="376.258" x2="425.468" y2="40.2408" stroke="#F5ECC2" stroke-width="0.9"/>
<line x1="93.6925" y1="380.502" x2="429.71" y2="44.4849" stroke="#F5ECC2" stroke-width="0.9"/>
<line x1="97.9347" y1="384.742" x2="433.952" y2="48.7252" stroke="#F5ECC2" stroke-width="0.9"/>
<line x1="102.178" y1="388.986" x2="438.195" y2="52.9693" stroke="#F5ECC2" stroke-width="0.9"/>
<line x1="106.42" y1="393.229" x2="442.437" y2="57.2115" stroke="#F5ECC2" stroke-width="0.9"/>
<line x1="110.663" y1="397.471" x2="446.68" y2="61.4537" stroke="#F5ECC2" stroke-width="0.9"/>
<line x1="114.905" y1="401.715" x2="450.923" y2="65.6978" stroke="#F5ECC2" stroke-width="0.9"/>
<line x1="119.149" y1="405.955" x2="455.166" y2="69.9381" stroke="#F5ECC2" stroke-width="0.9"/>
<line x1="123.391" y1="410.199" x2="459.408" y2="74.1822" stroke="#F5ECC2" stroke-width="0.9"/>
<line x1="127.633" y1="414.442" x2="463.65" y2="78.4244" stroke="#F5ECC2" stroke-width="0.9"/>
<line x1="131.876" y1="418.684" x2="467.893" y2="82.6666" stroke="#F5ECC2" stroke-width="0.9"/>
<line x1="136.119" y1="422.928" x2="472.136" y2="86.9107" stroke="#F5ECC2" stroke-width="0.9"/>
<line x1="140.361" y1="427.17" x2="476.379" y2="91.1529" stroke="#F5ECC2" stroke-width="0.9"/>
<line x1="144.605" y1="431.412" x2="480.622" y2="95.3951" stroke="#F5ECC2" stroke-width="0.9"/>
<line x1="148.847" y1="435.654" x2="484.864" y2="99.6373" stroke="#F5ECC2" stroke-width="0.9"/>
<line x1="153.089" y1="439.899" x2="489.106" y2="103.881" stroke="#F5ECC2" stroke-width="0.9"/>
</g>
<rect x="71.1006" y="189.9" width="118.8" height="118.8" stroke="#F5ECC2" stroke-width="0.9"/>
<path d="M56.7 56.7L55.3551 51.6809L51.6809 55.3551L56.7 56.7ZM18 18L17.6818 18.3182L53.518 54.1544L53.8362 53.8362L54.1544 53.518L18.3182 17.6818L18 18Z" fill="#F5ECC2"/>
<path d="M323.101 56.7L328.12 55.3551L324.446 51.6809L323.101 56.7ZM361.801 18L361.483 17.6818L325.646 53.518L325.965 53.8362L326.283 54.1544L362.119 18.3182L361.801 18Z" fill="#F5ECC2"/>
<path d="M323.101 323.101L324.446 328.12L328.12 324.446L323.101 323.101ZM361.801 361.801L362.119 361.483L326.283 325.646L325.965 325.965L325.646 326.283L361.483 362.119L361.801 361.801Z" fill="#F5ECC2"/>
<path d="M56.7 323.101L51.6809 324.446L55.3551 328.12L56.7 323.101ZM18 361.801L18.3182 362.119L54.1544 326.283L53.8362 325.965L53.518 325.646L17.6818 361.483L18 361.801Z" fill="#F5ECC2"/>
<circle cx="375.301" cy="4.5" r="4.05" stroke="#F5ECC2" stroke-width="0.9"/>
<circle cx="375.301" cy="375.301" r="4.05" stroke="#F5ECC2" stroke-width="0.9"/>
<circle cx="4.5" cy="4.5" r="4.05" stroke="#F5ECC2" stroke-width="0.9"/>
<circle cx="4.5" cy="375.301" r="4.05" stroke="#F5ECC2" stroke-width="0.9"/>
<defs>
<clipPath id="clip0_270_1156">
<rect x="189.9" y="71.0996" width="118.8" height="118.8" fill="white"/>
</clipPath>
<clipPath id="clip1_270_1156">
<path d="M189.9 189.9H308.7V308.7H189.9V189.9Z" fill="white"/>
</clipPath>
<clipPath id="clip2_270_1156">
<rect x="71.1006" y="189.9" width="118.8" height="118.8" fill="white"/>
</clipPath>
</defs>
</svg>
